<svg xmlns="http://www.w3.org/2000/svg" version="1.1" xmlns:xlink="http://www.w3.org/1999/xlink" xmlns:svgjs="http://svgjs.dev/svgjs" width="1000" height="1000" viewBox="0 0 1000 1000"><rect width="1000" height="1000" fill="#ffffff"></rect><g transform="matrix(0.7,0,0,0.7,149.5757575921267,434.83033445762385)"><svg viewBox="0 0 396 74" data-background-color="#8abcd7" preserveAspectRatio="xMidYMid meet" height="186" width="1000" xmlns="http://www.w3.org/2000/svg" xmlns:xlink="http://www.w3.org/1999/xlink"><g id="tight-bounds" transform="matrix(1,0,0,1,0.24000000926031362,0.03959485511390426)"><svg viewBox="0 0 395.52 73.92081028977219" height="73.92081028977219" width="395.52"><g><svg viewBox="0 0 395.52 73.92081028977219" height="73.92081028977219" width="395.52"><g transform="matrix(1,0,0,1,0,45.68602631490966)"><svg viewBox="0 0 395.52 28.234783974862527" height="28.234783974862527" width="395.52"><g id="textblocktransform"><svg viewBox="0 0 395.52 28.234783974862527" height="28.234783974862527" width="395.52" id="textblock"><g><svg viewBox="0 0 395.52 28.234783974862527" height="28.234783974862527" width="395.52"><g transform="matrix(1,0,0,1,0,0)"><svg width="395.52" viewBox="1.850000023841858 -35.849998474121094 509.1600036621094 36.349998474121094" height="28.234783974862527" data-palette-color="#ffffff"><path d="M1.85 0.15L1.85 0.15Q1.85-1.05 1.9-1.88 1.95-2.7 2.15-3.3L2.15-3.3Q3.5-3.4 4.23-3.83 4.95-4.25 5.25-5.35 5.55-6.45 5.55-8.6L5.55-8.6 5.55-25.3Q5.55-27.4 5.3-28.45 5.05-29.5 4.33-29.93 3.6-30.35 2.25-30.5L2.25-30.5Q2.05-31.15 1.95-32.02 1.85-32.9 1.85-33.95L1.85-33.95Q4.1-33.9 6.08-33.85 8.05-33.8 9.65-33.8L9.65-33.8Q11-33.8 12.83-33.83 14.65-33.85 16.25-33.88 17.85-33.9 18.6-33.9L18.6-33.9Q23.55-33.9 26.38-32.55 29.2-31.2 30.33-28.9 31.45-26.6 31.45-23.65L31.45-23.65Q31.45-20.1 30.03-17.3 28.6-14.5 25.88-12.88 23.15-11.25 19.15-11.25L19.15-11.25Q17.05-11.25 15.75-11.75L15.75-11.75Q15.55-12.7 15.65-13.5 15.75-14.3 16.05-14.95L16.05-14.95Q16.45-14.9 16.85-14.85 17.25-14.8 17.55-14.8L17.55-14.8Q18.8-14.8 19.95-15.5 21.1-16.2 21.83-17.8 22.55-19.4 22.55-22.15L22.55-22.15Q22.55-25.8 21.05-28.1 19.55-30.4 16.3-30.4L16.3-30.4Q15.7-30.4 15.05-30.28 14.4-30.15 13.65-29.85L13.65-29.85 14.2-30.7 14.2-9.2Q14.2-7.05 14.68-5.83 15.15-4.6 16.28-4.03 17.4-3.45 19.35-3.3L19.35-3.3Q19.65-2.6 19.7-1.68 19.75-0.75 19.75 0.15L19.75 0.15Q18.85 0.1 17.4 0.08 15.95 0.05 14.25 0.03 12.55 0 11 0L11 0Q9.4 0 7.68 0.03 5.95 0.05 4.4 0.08 2.85 0.1 1.85 0.15ZM51.8 0.45L51.8 0.45Q46.8 0.45 43-1.78 39.2-4 37.07-7.95 34.95-11.9 34.95-17.1L34.95-17.1Q34.95-21.35 36.35-24.58 37.75-27.8 40.15-29.95 42.55-32.1 45.62-33.18 48.7-34.25 52-34.25L52-34.25Q54.85-34.25 57.62-33.58 60.4-32.9 63.05-31.65L63.05-31.65Q62.75-29.95 62.62-27.95 62.5-25.95 62.5-23.9L62.5-23.9Q61.85-23.6 60.52-23.43 59.2-23.25 58.15-23.25L58.15-23.25Q58.1-26.1 57.35-27.75 56.6-29.4 55.32-30.13 54.05-30.85 52.25-30.85L52.25-30.85Q50-30.85 48.37-29.83 46.75-28.8 45.8-27.03 44.85-25.25 44.37-23.03 43.9-20.8 43.9-18.4L43.9-18.4Q43.9-14.25 45.07-10.95 46.25-7.65 48.57-5.75 50.9-3.85 54.55-3.85L54.55-3.85Q56.45-3.85 58.47-4.42 60.5-5 62.5-6.15L62.5-6.15Q62.95-5.7 63.3-5.05 63.65-4.4 63.75-3.7L63.75-3.7Q61.65-1.95 58.72-0.75 55.8 0.45 51.8 0.45ZM83.75 0.45L83.75 0.45Q78.75 0.45 74.95-1.78 71.15-4 69.02-7.95 66.9-11.9 66.9-17.1L66.9-17.1Q66.9-21.35 68.3-24.58 69.7-27.8 72.1-29.95 74.5-32.1 77.57-33.18 80.65-34.25 83.95-34.25L83.95-34.25Q86.8-34.25 89.57-33.58 92.35-32.9 95-31.65L95-31.65Q94.7-29.95 94.57-27.95 94.45-25.95 94.45-23.9L94.45-23.9Q93.8-23.6 92.47-23.43 91.15-23.25 90.1-23.25L90.1-23.25Q90.05-26.1 89.3-27.75 88.55-29.4 87.27-30.13 86-30.85 84.2-30.85L84.2-30.85Q81.95-30.85 80.32-29.83 78.7-28.8 77.75-27.03 76.8-25.25 76.32-23.03 75.85-20.8 75.85-18.4L75.85-18.4Q75.85-14.25 77.02-10.95 78.2-7.65 80.52-5.75 82.85-3.85 86.5-3.85L86.5-3.85Q88.4-3.85 90.42-4.42 92.45-5 94.45-6.15L94.45-6.15Q94.9-5.7 95.25-5.05 95.6-4.4 95.7-3.7L95.7-3.7Q93.6-1.95 90.67-0.75 87.75 0.45 83.75 0.45ZM129.89-30.45L119.09-30.45Q117.14-30.45 115.92-29.73 114.69-29 113.99-27.63 113.29-26.25 112.79-24.1L112.79-24.1Q111.59-24.1 110.42-24.23 109.24-24.35 108.34-24.8L108.34-24.8Q108.84-26.85 109.17-29.4 109.49-31.95 109.49-33.95L109.49-33.95Q111.39-33.9 113.44-33.85 115.49-33.8 118.12-33.8 120.74-33.8 124.39-33.8L124.39-33.8Q127.74-33.8 130.34-33.83 132.94-33.85 135.09-33.88 137.24-33.9 139.09-33.95L139.09-33.95Q139.09-31.95 139.34-29.53 139.59-27.1 140.09-24.85L140.09-24.85Q139.19-24.45 138.04-24.28 136.89-24.1 135.54-24.1L135.54-24.1Q135.04-27.4 133.79-28.93 132.54-30.45 129.89-30.45L129.89-30.45ZM119.84-8.6L119.84-32.15 128.49-32.15 128.49-8.6Q128.49-6.45 128.84-5.35 129.19-4.25 130.19-3.83 131.19-3.4 133.14-3.3L133.14-3.3Q133.34-2.7 133.44-1.73 133.54-0.75 133.54 0.15L133.54 0.15Q132.09 0.05 129.77 0.03 127.44 0 124.64 0L124.64 0Q122.79 0 120.79 0.03 118.79 0.05 117.12 0.08 115.44 0.1 114.34 0.15L114.34 0.15Q114.34-0.7 114.52-1.7 114.69-2.7 114.89-3.3L114.89-3.3Q116.84-3.4 117.92-3.83 118.99-4.25 119.42-5.35 119.84-6.45 119.84-8.6L119.84-8.6ZM160.14 0.45L160.14 0.45Q154.84 0.45 151.04-1.78 147.24-4 145.16-7.93 143.09-11.85 143.09-17.05L143.09-17.05Q143.09-21 144.36-24.18 145.64-27.35 147.91-29.6 150.19-31.85 153.31-33.05 156.44-34.25 160.14-34.25L160.14-34.25Q165.29-34.25 169.11-32.18 172.94-30.1 175.09-26.35 177.24-22.6 177.24-17.5L177.24-17.5Q177.24-13.55 176.04-10.28 174.84-7 172.59-4.6 170.34-2.2 167.19-0.88 164.04 0.45 160.14 0.45ZM160.84-3.1L160.84-3.1Q163.24-3.1 164.89-4.78 166.54-6.45 167.41-9.43 168.29-12.4 168.29-16.4L168.29-16.4Q168.29-20.4 167.19-23.68 166.09-26.95 164.09-28.9 162.09-30.85 159.39-30.85L159.39-30.85Q157.14-30.85 155.49-29.35 153.84-27.85 152.94-25.05 152.04-22.25 152.04-18.3L152.04-18.3Q152.04-15.25 152.59-12.5 153.14-9.75 154.21-7.63 155.29-5.5 156.94-4.3 158.59-3.1 160.84-3.1ZM208.44-24.2L208.44-13.75Q208.44-9.45 207.84-6.73 207.24-4 205.49-2.25L205.49-2.25Q203.99-0.85 201.81-0.2 199.64 0.45 196.84 0.45L196.84 0.45Q191.94 0.45 189.09-0.85 186.24-2.15 185.04-4.9 183.84-7.65 183.84-11.85L183.84-11.85 183.84-25.1Q183.84-27.3 183.59-28.38 183.34-29.45 182.64-29.88 181.94-30.3 180.64-30.5L180.64-30.5Q180.44-31.25 180.36-32.13 180.29-33 180.29-33.95L180.29-33.95Q181.29-33.9 183.11-33.85 184.94-33.8 186.84-33.8L186.84-33.8Q187.74-33.8 189.06-33.8 190.39-33.8 191.76-33.83 193.14-33.85 194.29-33.88 195.44-33.9 196.04-33.95L196.04-33.95Q196.04-32.95 195.99-32.1 195.94-31.25 195.74-30.5L195.74-30.5Q194.39-30.3 193.69-29.88 192.99-29.45 192.74-28.38 192.49-27.3 192.49-25.1L192.49-25.1 192.49-12.65Q192.49-9.65 193.14-7.53 193.79-5.4 195.19-4.33 196.59-3.25 198.84-3.25L198.84-3.25Q199.99-3.25 201.26-3.73 202.54-4.2 203.39-5.35L203.39-5.35Q203.94-6 204.26-7.05 204.59-8.1 204.79-9.78 204.99-11.45 204.99-14L204.99-14 204.99-23.9Q204.99-26.35 204.69-27.73 204.39-29.1 203.66-29.7 202.94-30.3 201.64-30.5L201.64-30.5Q201.49-31.45 201.41-32.3 201.34-33.15 201.34-33.95L201.34-33.95Q202.04-33.9 202.99-33.88 203.94-33.85 204.96-33.83 205.99-33.8 206.74-33.8L206.74-33.8Q208.09-33.8 209.54-33.85 210.99-33.9 211.94-33.95L211.94-33.95Q211.94-33.05 211.86-32.2 211.79-31.35 211.54-30.5L211.54-30.5Q210.29-30.35 209.61-29.75 208.94-29.15 208.69-27.85 208.44-26.55 208.44-24.2L208.44-24.2ZM237.48 0.45L237.48 0.45Q236.88-0.85 236.33-2.08 235.78-3.3 235.28-4.53 234.78-5.75 234.23-7.05L234.23-7.05Q233.48-8.85 232.83-10.08 232.18-11.3 231.38-12.23 230.58-13.15 229.38-14.05L229.38-14.05 231.63-13.65Q230.28-13.6 229.26-13.58 228.23-13.55 226.93-13.6L226.93-13.6 227.33-17.25Q228.08-17.15 228.53-17.1 228.98-17.05 229.38-17.05L229.38-17.05Q231.18-17.05 232.71-17.78 234.23-18.5 235.21-20.03 236.18-21.55 236.18-23.85L236.18-23.85Q236.18-27 234.66-28.8 233.13-30.6 230.23-30.6L230.23-30.6Q229.43-30.6 228.76-30.5 228.08-30.4 227.33-30.15L227.33-30.15 227.73-31.8 227.73-8.95Q227.73-6.5 227.98-5.3 228.23-4.1 228.81-3.73 229.38-3.35 230.38-3.3L230.38-3.3Q230.58-2.8 230.63-1.8 230.68-0.8 230.68 0.15L230.68 0.15Q229.73 0.1 228.23 0.08 226.73 0.05 225.23 0.03 223.73 0 222.68 0L222.68 0Q220.83 0 218.91 0.03 216.98 0.05 215.38 0.15L215.38 0.15Q215.38-0.95 215.46-1.8 215.53-2.65 215.73-3.3L215.73-3.3Q217.08-3.4 217.81-3.83 218.53-4.25 218.81-5.35 219.08-6.45 219.08-8.6L219.08-8.6 219.08-25.35Q219.08-27.45 218.81-28.53 218.53-29.6 217.81-30 217.08-30.4 215.68-30.55L215.68-30.55Q215.48-31.25 215.43-32.35 215.38-33.45 215.38-33.95L215.38-33.95Q216.68-33.9 218.81-33.85 220.93-33.8 223.28-33.8L223.28-33.8Q224.88-33.8 227.56-33.9 230.23-34 233.13-34L233.13-34Q237.33-34 240.01-32.77 242.68-31.55 243.93-29.48 245.18-27.4 245.18-24.85L245.18-24.85Q245.18-21.8 244.01-19.58 242.83-17.35 240.78-16.1 238.73-14.85 236.13-14.5L236.13-14.5 237.08-15.15Q238.58-14.45 239.51-13.63 240.43-12.8 241.36-11.33 242.28-9.85 243.68-7.15L243.68-7.15Q244.43-5.75 245.03-4.98 245.63-4.2 246.38-3.88 247.13-3.55 248.28-3.45L248.28-3.45Q248.28-2.5 248.18-1.65 248.08-0.8 247.83 0L247.83 0Q244.43 0 241.76 0.1 239.08 0.2 237.48 0.45ZM287.03-7.45L284.13-9.25Q285.58-11.6 286.33-13.23 287.08-14.85 287.43-16.3L287.43-16.3Q287.88-18.1 287.23-18.88 286.58-19.65 284.53-20.05L284.53-20.05Q284.23-20.85 284.13-21.55 284.03-22.25 284.03-23.05L284.03-23.05Q285.23-22.95 286.93-22.93 288.63-22.9 289.88-22.9L289.88-22.9Q291.13-22.9 292.5-22.93 293.88-22.95 295.03-23.05L295.03-23.05Q295.03-22.3 294.98-21.58 294.93-20.85 294.68-20.05L294.68-20.05Q293.48-19.7 292.83-19.25 292.18-18.8 291.8-18.07 291.43-17.35 291.03-16.25L291.03-16.25Q290.48-14.65 289.98-13.4 289.48-12.15 288.8-10.78 288.13-9.4 287.03-7.45L287.03-7.45ZM289.98-7.2L289.98-7.2Q291.03-6.15 291.85-5.6 292.68-5.05 293.55-4.83 294.43-4.6 295.68-4.55L295.68-4.55Q295.68-3.65 295.53-2.5 295.38-1.35 295.08-0.5L295.08-0.5Q293.83-0.5 292.2-0.38 290.58-0.25 288.93-0.05 287.28 0.15 285.93 0.45L285.93 0.45Q282.58-4 279.28-7.85 275.98-11.7 273.03-15.35L273.03-15.35Q270.73-18.3 269.38-20.48 268.03-22.65 267.45-24.43 266.88-26.2 266.88-28.05L266.88-28.05Q266.88-30.25 267.93-32.02 268.98-33.8 271.45-34.83 273.93-35.85 278.13-35.85L278.13-35.85Q280.78-35.85 282.95-35.45 285.13-35.05 287.28-34.05L287.28-34.05Q286.93-32.65 286.85-30.75 286.78-28.85 286.88-26.85L286.88-26.85Q285.83-26.55 284.58-26.43 283.33-26.3 281.98-26.3L281.98-26.3Q281.78-29.3 280.83-30.85 279.88-32.4 277.83-32.4L277.83-32.4Q276.53-32.4 275.73-31.63 274.93-30.85 274.93-29.05L274.93-29.05Q274.93-27.85 275.35-26.55 275.78-25.25 276.8-23.63 277.83-22 279.63-19.55L279.63-19.55Q280.43-18.55 281.53-17.13 282.63-15.7 284-14.05 285.38-12.4 286.9-10.65 288.43-8.9 289.98-7.2ZM275.93-3.5L275.93-3.5Q277.68-3.5 279.1-4.33 280.53-5.15 281.98-7L281.98-7 284.68-4.65Q282.38-2 279.85-0.75 277.33 0.5 273.53 0.5L273.53 0.5Q270.48 0.5 268.2-0.25 265.93-1 264.48-2.4 263.03-3.8 262.33-5.68 261.63-7.55 261.63-9.85L261.63-9.85Q261.63-13.9 263.8-16.53 265.98-19.15 269.78-20.9L269.78-20.9 272.13-17.9Q271.13-17 270.48-15.58 269.83-14.15 269.83-11.7L269.83-11.7Q269.83-8.8 270.68-7 271.53-5.2 272.93-4.35 274.33-3.5 275.93-3.5ZM331.17-30.45L320.37-30.45Q318.42-30.45 317.2-29.73 315.97-29 315.27-27.63 314.57-26.25 314.07-24.1L314.07-24.1Q312.87-24.1 311.7-24.23 310.52-24.35 309.62-24.8L309.62-24.8Q310.12-26.85 310.45-29.4 310.77-31.95 310.77-33.95L310.77-33.95Q312.67-33.9 314.72-33.85 316.77-33.8 319.4-33.8 322.02-33.8 325.67-33.8L325.67-33.8Q329.02-33.8 331.62-33.83 334.22-33.85 336.37-33.88 338.52-33.9 340.37-33.95L340.37-33.95Q340.37-31.95 340.62-29.53 340.87-27.1 341.37-24.85L341.37-24.85Q340.47-24.45 339.32-24.28 338.17-24.1 336.82-24.1L336.82-24.1Q336.32-27.4 335.07-28.93 333.82-30.45 331.17-30.45L331.17-30.45ZM321.12-8.6L321.12-32.15 329.77-32.15 329.77-8.6Q329.77-6.45 330.12-5.35 330.47-4.25 331.47-3.83 332.47-3.4 334.42-3.3L334.42-3.3Q334.62-2.7 334.72-1.73 334.82-0.75 334.82 0.15L334.82 0.15Q333.37 0.05 331.05 0.03 328.72 0 325.92 0L325.92 0Q324.07 0 322.07 0.03 320.07 0.05 318.4 0.08 316.72 0.1 315.62 0.15L315.62 0.15Q315.62-0.7 315.8-1.7 315.97-2.7 316.17-3.3L316.17-3.3Q318.12-3.4 319.2-3.83 320.27-4.25 320.7-5.35 321.12-6.45 321.12-8.6L321.12-8.6ZM366.57 0.45L366.57 0.45Q365.97-0.85 365.42-2.08 364.87-3.3 364.37-4.53 363.87-5.75 363.32-7.05L363.32-7.05Q362.57-8.85 361.92-10.08 361.27-11.3 360.47-12.23 359.67-13.15 358.47-14.05L358.47-14.05 360.72-13.65Q359.37-13.6 358.35-13.58 357.32-13.55 356.02-13.6L356.02-13.6 356.42-17.25Q357.17-17.15 357.62-17.1 358.07-17.05 358.47-17.05L358.47-17.05Q360.27-17.05 361.8-17.78 363.32-18.5 364.3-20.03 365.27-21.55 365.27-23.85L365.27-23.85Q365.27-27 363.75-28.8 362.22-30.6 359.32-30.6L359.32-30.6Q358.52-30.6 357.85-30.5 357.17-30.4 356.42-30.15L356.42-30.15 356.82-31.8 356.82-8.95Q356.82-6.5 357.07-5.3 357.32-4.1 357.9-3.73 358.47-3.35 359.47-3.3L359.47-3.3Q359.67-2.8 359.72-1.8 359.77-0.8 359.77 0.15L359.77 0.15Q358.82 0.1 357.32 0.08 355.82 0.05 354.32 0.03 352.82 0 351.77 0L351.77 0Q349.92 0 348 0.03 346.07 0.05 344.47 0.15L344.47 0.15Q344.47-0.95 344.55-1.8 344.62-2.65 344.82-3.3L344.82-3.3Q346.17-3.4 346.9-3.83 347.62-4.25 347.9-5.35 348.17-6.45 348.17-8.6L348.17-8.6 348.17-25.35Q348.17-27.45 347.9-28.53 347.62-29.6 346.9-30 346.17-30.4 344.77-30.55L344.77-30.55Q344.57-31.25 344.52-32.35 344.47-33.45 344.47-33.95L344.47-33.95Q345.77-33.9 347.9-33.85 350.02-33.8 352.37-33.8L352.37-33.8Q353.97-33.8 356.65-33.9 359.32-34 362.22-34L362.22-34Q366.42-34 369.1-32.77 371.77-31.55 373.02-29.48 374.27-27.4 374.27-24.85L374.27-24.85Q374.27-21.8 373.1-19.58 371.92-17.35 369.87-16.1 367.82-14.85 365.22-14.5L365.22-14.5 366.17-15.15Q367.67-14.45 368.6-13.63 369.52-12.8 370.45-11.33 371.37-9.85 372.77-7.15L372.77-7.15Q373.52-5.75 374.12-4.98 374.72-4.2 375.47-3.88 376.22-3.55 377.37-3.45L377.37-3.45Q377.37-2.5 377.27-1.65 377.17-0.8 376.92 0L376.92 0Q373.52 0 370.85 0.1 368.17 0.2 366.57 0.45ZM397.07-34.1L397.07-34.1 408.37-9Q409.52-6.65 410.17-5.43 410.82-4.2 411.39-3.8 411.97-3.4 412.67-3.3L412.67-3.3Q412.87-2.65 412.97-1.78 413.07-0.9 413.07 0.15L413.07 0.15Q412.17 0.05 410.77 0.03 409.37 0 407.97 0 406.57 0 405.77 0L405.77 0Q405.17 0 404.09 0 403.02 0 401.79 0.03 400.57 0.05 399.47 0.08 398.37 0.1 397.77 0.15L397.77 0.15Q397.77-1.05 397.87-1.85 397.97-2.65 398.17-3.3L398.17-3.3Q399.92-3.65 400.24-4.48 400.57-5.3 399.77-7.15L399.77-7.15 395.27-17.4Q394.12-20.05 393.39-22.33 392.67-24.6 392.17-26.8L392.17-26.8 393.62-26.8Q393.02-24.55 392.29-22.25 391.57-19.95 390.52-17.45L390.52-17.45 386.72-7.55Q386.07-5.95 386.47-4.75 386.87-3.55 388.57-3.3L388.57-3.3Q388.77-2.6 388.87-1.75 388.97-0.9 388.97 0.15L388.97 0.15Q388.42 0.1 387.42 0.08 386.42 0.05 385.34 0.03 384.27 0 383.42 0L383.42 0Q382.17 0 380.84 0.03 379.52 0.05 378.77 0.15L378.77 0.15Q378.77-0.85 378.87-1.65 378.97-2.45 379.22-3.3L379.22-3.3Q380.07-3.45 380.67-3.93 381.27-4.4 381.84-5.45 382.42-6.5 383.22-8.45L383.22-8.45 393.77-33.85Q394.62-34.05 395.34-34.08 396.07-34.1 397.07-34.1ZM386.52-12L398.92-12 399.82-9Q396.47-9 392.84-8.9 389.22-8.8 385.77-8.45L385.77-8.45 386.52-12ZM429.32 0.4L429.32 0.4Q427.67-4.05 425.94-8.35 424.22-12.65 422.52-16.75 420.82-20.85 419.17-24.6L419.17-24.6Q418.07-26.95 417.42-28.18 416.77-29.4 416.19-29.88 415.62-30.35 414.82-30.5L414.82-30.5Q414.62-31.15 414.52-32.02 414.42-32.9 414.47-33.95L414.47-33.95Q415.07-33.9 416.07-33.88 417.07-33.85 418.22-33.83 419.37-33.8 420.39-33.8 421.42-33.8 422.07-33.8L422.07-33.8Q423.37-33.8 425.59-33.83 427.82-33.85 429.97-33.95L429.97-33.95Q429.92-32.8 429.82-31.95 429.72-31.1 429.57-30.5L429.57-30.5Q428.22-30.3 427.64-29.83 427.07-29.35 427.24-28.33 427.42-27.3 428.22-25.4L428.22-25.4Q429.37-22.6 430.39-19.95 431.42-17.3 432.39-14.45 433.37-11.6 434.37-8.2L434.37-8.2 432.92-8.2Q434.37-11.5 435.54-14.28 436.72-17.05 437.82-19.9 438.92-22.75 440.07-26.1L440.07-26.1Q440.67-27.9 440.32-29.1 439.97-30.3 438.22-30.5L438.22-30.5Q438.02-31.1 437.92-31.95 437.82-32.8 437.82-33.95L437.82-33.95Q438.47-33.9 439.42-33.88 440.37-33.85 441.37-33.83 442.37-33.8 443.17-33.8L443.17-33.8Q444.42-33.8 445.87-33.85 447.32-33.9 448.17-33.95L448.17-33.95Q448.17-32.95 448.04-32.1 447.92-31.25 447.72-30.5L447.72-30.5Q446.37-30.2 445.49-29.05 444.62-27.9 443.57-25.25L443.57-25.25Q441.12-18.95 438.59-12.73 436.07-6.5 433.22 0.05L433.22 0.05Q432.47 0.3 431.39 0.35 430.32 0.4 429.32 0.4ZM450.71-33.95L450.71-33.95Q451.76-33.9 453.36-33.88 454.96-33.85 456.74-33.83 458.51-33.8 460.16-33.8 461.81-33.8 463.06-33.8L463.06-33.8 463.06-8.9Q463.06-6.75 463.41-5.53 463.76-4.3 464.64-3.83 465.51-3.35 467.11-3.35L467.11-3.35 465.51 0Q464.16 0 462.04 0.03 459.91 0.05 457.64 0.08 455.36 0.1 453.46 0.13 451.56 0.15 450.71 0.15L450.71 0.15Q450.71-0.85 450.79-1.78 450.86-2.7 451.06-3.3L451.06-3.3Q452.41-3.4 453.14-3.83 453.86-4.25 454.14-5.38 454.41-6.5 454.41-8.7L454.41-8.7 454.41-25.3Q454.41-27.4 454.14-28.45 453.86-29.5 453.14-29.93 452.41-30.35 451.01-30.5L451.01-30.5Q450.81-31.15 450.76-32.18 450.71-33.2 450.71-33.95ZM475.16-10.05L475.16-10.05Q476.56-9.9 477.74-9.47 478.91-9.05 479.51-8.45L479.51-8.45Q478.96-6.75 478.56-4.45 478.16-2.15 477.96 0.1L477.96 0.1Q476.61 0.05 474.51 0.05 472.41 0.05 470.04 0.03 467.66 0 465.51 0L465.51 0 467.11-3.35 467.81-3.35Q470.01-3.35 471.39-4.08 472.76-4.8 473.61-6.28 474.46-7.75 475.16-10.05ZM472.21-22.75L472.21-22.75Q472.16-21.55 472.09-20.15 472.01-18.75 472.01-17L472.01-17Q472.01-15.1 472.09-13.68 472.16-12.25 472.21-11.1L472.21-11.1Q471.01-11.1 470.11-11.2 469.21-11.3 468.41-11.55L468.41-11.55Q468.21-13.75 467.26-14.48 466.31-15.2 463.86-15.2L463.86-15.2 460.86-15.2 460.86-18.55 463.86-18.55Q466.51-18.55 467.39-19.35 468.26-20.15 468.31-22.2L468.31-22.2Q469.11-22.55 470.16-22.65 471.21-22.75 472.21-22.75ZM476.56-33.95L476.56-33.95Q476.61-32.75 476.76-31.15 476.91-29.55 477.11-28.03 477.31-26.5 477.61-25.3L477.61-25.3Q476.81-24.95 475.79-24.73 474.76-24.5 473.26-24.5L473.26-24.5Q473.01-26.2 472.34-27.58 471.66-28.95 470.21-29.73 468.76-30.5 466.06-30.5L466.06-30.5 461.11-30.5 462.66-33.8Q466.46-33.8 469.09-33.83 471.71-33.85 473.51-33.88 475.31-33.9 476.56-33.95ZM498.86-3.35L499.56-3.35Q501.56-3.35 502.89-4.03 504.21-4.7 505.09-6.18 505.96-7.65 506.66-10.05L506.66-10.05Q508.06-9.9 509.24-9.47 510.41-9.05 511.01-8.45L511.01-8.45Q510.46-6.75 510.06-4.45 509.66-2.15 509.46 0.1L509.46 0.1Q508.11 0.05 506.01 0.05 503.91 0.05 501.61 0.03 499.31 0 497.26 0L497.26 0Q495.91 0 493.79 0.03 491.66 0.05 489.39 0.08 487.11 0.1 485.21 0.13 483.31 0.15 482.46 0.15L482.46 0.15Q482.46-0.85 482.54-1.78 482.61-2.7 482.81-3.3L482.81-3.3Q484.16-3.4 484.89-3.83 485.61-4.25 485.89-5.38 486.16-6.5 486.16-8.7L486.16-8.7 486.16-25.3Q486.16-27.4 485.89-28.45 485.61-29.5 484.89-29.93 484.16-30.35 482.76-30.5L482.76-30.5Q482.61-31.15 482.54-32.18 482.46-33.2 482.46-33.95L482.46-33.95Q483.91-33.9 485.14-33.88 486.36-33.85 487.64-33.83 488.91-33.8 490.46-33.8L490.46-33.8Q491.66-33.8 493.14-33.83 494.61-33.85 496.06-33.88 497.51-33.9 498.51-33.95L498.51-33.95Q498.51-33.05 498.46-32.13 498.41-31.2 498.11-30.5L498.11-30.5Q496.76-30.35 496.04-29.95 495.31-29.55 495.06-28.45 494.81-27.35 494.81-25.25L494.81-25.25 494.81-8.9Q494.81-6.75 495.16-5.53 495.51-4.3 496.39-3.83 497.26-3.35 498.86-3.35L498.86-3.35Z" opacity="1" transform="matrix(1,0,0,1,0,0)" fill="#000000" class="wordmark-text-0" data-fill-palette-color="primary" id="text-0"></path></svg></g></svg></g></svg></g></svg></g><g transform="matrix(1,0,0,1,174.84218195210318,0)"><svg viewBox="0 0 45.835636095793646 39.020471453260015" height="39.020471453260015" width="45.835636095793646"><g><svg xmlns="http://www.w3.org/2000/svg" xmlns:xlink="http://www.w3.org/1999/xlink" version="1.1" x="8" y="0" viewBox="16.256967544555664 6.5 63.463035583496094 82.99999237060547" style="enable-background:new 0 0 96 96;" xml:space="preserve" height="39.020471453260015" width="29.835636095793646" class="icon-icon-0" data-fill-palette-color="accent" id="icon-0"><path d="M19.1 62.78l-1.95 0.87c-0.44 0.19-0.76 0.59-0.86 1.06s0.03 0.96 0.35 1.31l4.71 5.27c-2.12 1.68-2.98 4.42-1.94 6.76 0.9 2.01 2.95 3.18 5.2 3.18 0.37 0 0.74-0.04 1.12-0.1l0.76 7.03c0.05 0.48 0.33 0.9 0.74 1.14 0.23 0.13 0.49 0.2 0.75 0.2 0.21 0 0.42-0.04 0.61-0.13l1.95-0.87c0.44-0.2 0.76-0.6 0.86-1.07l1.86-9.2 12.31-5.12 1.3 12.02c0.05 0.48 0.33 0.9 0.74 1.14 0.23 0.13 0.49 0.2 0.75 0.2 0.21 0 0.42-0.04 0.61-0.13l2.81-1.25c0.44-0.2 0.76-0.6 0.86-1.07l3.03-15.01 5.14-2.08c1.7-0.68 3.02-1.98 3.71-3.68s0.66-3.55-0.08-5.23c-0.75-1.67-2.1-2.94-3.83-3.56s-3.58-0.52-5.21 0.29l-5 2.43-13.18-7.8c-0.42-0.25-0.93-0.28-1.37-0.08l-2.81 1.25c-0.44 0.19-0.76 0.59-0.86 1.06s0.03 0.96 0.35 1.31l8.06 9.01-12.04 5.72-8.08-4.78C20.06 62.61 19.55 62.58 19.1 62.78zM29.06 83.93l-0.41-3.8 1.29-0.53L29.06 83.93zM49.86 82.65l-0.22 0.1-1.18-10.84 3.88-1.57L49.86 82.65zM36.15 52.45l0.22-0.1 10.81 6.39-3.76 1.83L36.15 52.45zM29.12 70.69C29.12 70.69 29.12 70.69 29.12 70.69l14.58-6.92c0 0 0.01 0 0.01 0 0 0 0 0 0.01 0L51 60.22l5.73-2.79c0.9-0.45 1.92-0.5 2.87-0.16 0.95 0.34 1.69 1.04 2.1 1.96 0.41 0.92 0.43 1.94 0.04 2.87-0.38 0.93-1.1 1.65-2.05 2.03l-5.9 2.39-7.51 3.04c0 0 0 0-0.01 0 0 0-0.01 0-0.01 0l-14.89 6.2c0 0 0 0 0 0l-4.92 2.02c0 0 0 0 0 0l-0.41 0.17c-1.59 0.64-3.34 0.14-3.9-1.12-0.56-1.26 0.24-2.89 1.77-3.64l0.41-0.2L29.12 70.69zM25.3 69.2l-1.25 0.6-2.55-2.85L25.3 69.2z" fill="#000000" data-fill-palette-color="accent"></path><path d="M57.55 6.55C57.55 6.55 57.55 6.55 57.55 6.55l-0.01 0c-0.18-0.02-0.37-0.05-0.56-0.05s-0.37 0.03-0.56 0.05l-0.01 0c0 0 0 0 0 0-5.66 0.14-11.03 2.37-15.13 6.27-3.14 3-5.35 6.79-6.39 10.98 0 0 0 0 0 0-0.45 1.8-0.67 3.64-0.67 5.49s0.23 3.69 0.67 5.49c0 0 0 0 0 0 1.04 4.19 3.25 7.98 6.39 10.98 4.1 3.91 9.47 6.13 15.13 6.27 0 0 0 0 0 0l0.02 0c0.18 0.02 0.36 0.05 0.54 0.05s0.36-0.03 0.54-0.05l0.02 0c0 0 0 0 0 0 5.66-0.14 11.03-2.37 15.13-6.27 3.14-3 5.35-6.79 6.39-10.98 0 0 0 0 0 0 0.45-1.8 0.67-3.64 0.67-5.49s-0.23-3.69-0.67-5.49c0 0 0 0 0 0-1.04-4.19-3.25-7.98-6.39-10.98C68.58 8.92 63.21 6.69 57.55 6.55zM51.43 10.33c-0.04 0.06-0.07 0.13-0.11 0.19-0.08 0.12-0.15 0.25-0.22 0.38-0.14 0.25-0.28 0.51-0.42 0.78-0.07 0.15-0.15 0.29-0.22 0.44-0.04 0.09-0.09 0.18-0.14 0.28h-3.6C48.2 11.51 49.78 10.82 51.43 10.33zM42.93 15.41h6.26c-0.01 0.04-0.02 0.08-0.03 0.12-0.15 0.49-0.29 0.99-0.43 1.5-0.02 0.09-0.04 0.18-0.06 0.27-0.11 0.44-0.21 0.89-0.31 1.34-0.04 0.16-0.07 0.33-0.1 0.5-0.08 0.42-0.16 0.84-0.24 1.28-0.03 0.15-0.05 0.3-0.08 0.45-0.09 0.57-0.18 1.15-0.25 1.74 0 0.02-0.01 0.04-0.01 0.06h-9.31C39.33 19.95 40.89 17.48 42.93 15.41zM37.22 29.29c0-1.21 0.11-2.43 0.34-3.63h9.84c-0.01 0.22-0.02 0.43-0.03 0.65-0.01 0.21-0.02 0.41-0.03 0.62-0.03 0.78-0.06 1.57-0.06 2.36s0.02 1.58 0.06 2.36c0.01 0.21 0.02 0.41 0.03 0.62 0.01 0.22 0.02 0.43 0.03 0.65h-9.84C37.33 31.72 37.22 30.51 37.22 29.29zM38.37 35.92h9.31c0 0.02 0.01 0.04 0.01 0.06 0.07 0.59 0.16 1.17 0.25 1.74 0.02 0.15 0.05 0.3 0.08 0.45 0.07 0.43 0.15 0.86 0.24 1.28 0.03 0.16 0.07 0.33 0.1 0.49 0.1 0.46 0.2 0.92 0.32 1.36 0.02 0.08 0.04 0.17 0.06 0.25 0.13 0.52 0.28 1.02 0.43 1.51 0.01 0.04 0.02 0.08 0.03 0.12h-6.26C40.89 41.11 39.33 38.63 38.37 35.92zM46.73 46.18h3.6c0.04 0.09 0.09 0.18 0.13 0.27 0.07 0.16 0.15 0.31 0.23 0.46 0.13 0.27 0.27 0.52 0.41 0.77 0.07 0.13 0.15 0.26 0.22 0.39 0.04 0.06 0.07 0.13 0.11 0.19C49.78 47.77 48.2 47.07 46.73 46.18zM55.48 48.44c-0.07-0.05-0.13-0.11-0.2-0.17-0.06-0.06-0.13-0.11-0.19-0.18-0.11-0.11-0.22-0.24-0.33-0.37-0.05-0.06-0.1-0.11-0.15-0.18-0.31-0.39-0.61-0.85-0.91-1.37h1.78V48.44zM55.48 43.18h-3.12c0-0.01-0.01-0.03-0.01-0.04-0.16-0.46-0.32-0.95-0.46-1.45-0.04-0.12-0.07-0.25-0.11-0.38-0.12-0.44-0.24-0.89-0.35-1.36-0.02-0.08-0.04-0.16-0.06-0.25-0.12-0.54-0.23-1.09-0.33-1.66-0.02-0.14-0.05-0.27-0.07-0.41-0.08-0.49-0.16-0.98-0.23-1.49-0.01-0.08-0.02-0.16-0.03-0.23h4.78V43.18zM55.48 32.92h-5.06c-0.02-0.24-0.04-0.48-0.05-0.73-0.01-0.22-0.02-0.44-0.03-0.66-0.03-0.74-0.05-1.49-0.05-2.24s0.02-1.5 0.05-2.24c0.01-0.22 0.02-0.44 0.03-0.66 0.01-0.25 0.03-0.49 0.05-0.73h5.06V32.92zM55.48 22.67h-4.78c0.01-0.08 0.02-0.16 0.03-0.24 0.07-0.5 0.14-1 0.23-1.49 0.02-0.14 0.05-0.28 0.07-0.41 0.1-0.56 0.21-1.12 0.33-1.66 0.02-0.08 0.04-0.16 0.06-0.25 0.11-0.46 0.22-0.92 0.35-1.36 0.03-0.13 0.07-0.25 0.11-0.38 0.14-0.5 0.3-0.98 0.46-1.45 0-0.01 0.01-0.03 0.01-0.04h3.12V22.67zM55.48 12.41H53.7c0.14-0.24 0.28-0.48 0.42-0.69 0 0 0.01-0.01 0.01-0.01 0.16-0.24 0.32-0.46 0.48-0.66 0.05-0.07 0.11-0.12 0.16-0.18 0.11-0.13 0.22-0.25 0.33-0.37 0.06-0.06 0.13-0.12 0.19-0.18 0.07-0.06 0.13-0.12 0.2-0.17V12.41zM67.23 12.41h-3.6c-0.04-0.1-0.09-0.18-0.14-0.28-0.07-0.15-0.15-0.3-0.22-0.44-0.14-0.27-0.28-0.53-0.42-0.78-0.07-0.13-0.15-0.26-0.22-0.38-0.04-0.06-0.07-0.13-0.11-0.19C64.18 10.82 65.76 11.51 67.23 12.41zM58.48 10.15c0.07 0.05 0.13 0.11 0.2 0.17 0.06 0.06 0.13 0.11 0.19 0.18 0.11 0.11 0.22 0.24 0.33 0.37 0.05 0.06 0.11 0.12 0.16 0.18 0.16 0.2 0.32 0.42 0.48 0.66 0 0 0.01 0.01 0.01 0.01 0.14 0.22 0.28 0.45 0.42 0.69h-1.78V10.15zM58.48 15.41h3.12c0 0.01 0.01 0.03 0.02 0.04 0.16 0.46 0.31 0.95 0.46 1.44 0.04 0.13 0.07 0.25 0.11 0.38 0.12 0.44 0.24 0.89 0.35 1.36 0.02 0.08 0.04 0.16 0.06 0.25 0.12 0.54 0.23 1.09 0.33 1.65 0.02 0.14 0.05 0.28 0.07 0.42 0.08 0.49 0.16 0.98 0.23 1.48 0.01 0.08 0.02 0.16 0.03 0.24h-4.78V15.41zM58.48 25.67h5.06c0.02 0.24 0.04 0.48 0.05 0.73 0.01 0.22 0.02 0.44 0.03 0.66 0.03 0.74 0.05 1.49 0.05 2.24s-0.02 1.5-0.05 2.24c-0.01 0.22-0.02 0.44-0.03 0.66-0.01 0.25-0.03 0.49-0.05 0.73h-5.06V25.67zM59.36 47.54c-0.05 0.06-0.1 0.12-0.15 0.18-0.11 0.13-0.22 0.26-0.33 0.37-0.06 0.06-0.13 0.12-0.19 0.18-0.07 0.06-0.13 0.11-0.2 0.17v-2.26h1.78C59.97 46.7 59.67 47.16 59.36 47.54zM62.08 41.69c-0.15 0.5-0.3 0.98-0.46 1.45 0 0.01-0.01 0.03-0.01 0.04h-3.12v-7.26h4.78c-0.01 0.08-0.02 0.16-0.03 0.24-0.07 0.5-0.14 1-0.23 1.48-0.02 0.14-0.05 0.28-0.07 0.42-0.1 0.56-0.21 1.12-0.33 1.65-0.02 0.08-0.04 0.16-0.06 0.25-0.11 0.46-0.22 0.92-0.35 1.36C62.15 41.44 62.12 41.57 62.08 41.69zM62.53 48.25c0.04-0.06 0.07-0.13 0.11-0.19 0.08-0.13 0.15-0.26 0.22-0.39 0.14-0.25 0.28-0.5 0.41-0.77 0.08-0.15 0.15-0.3 0.23-0.46 0.04-0.09 0.09-0.18 0.13-0.27h3.6C65.76 47.07 64.18 47.77 62.53 48.25zM71.03 43.18h-6.26c0.01-0.04 0.02-0.08 0.03-0.11 0.15-0.49 0.3-0.99 0.43-1.51 0.02-0.08 0.04-0.17 0.06-0.25 0.11-0.44 0.22-0.9 0.32-1.36 0.03-0.16 0.07-0.33 0.1-0.49 0.09-0.42 0.16-0.85 0.24-1.28 0.03-0.15 0.05-0.29 0.08-0.44 0.09-0.57 0.18-1.15 0.25-1.75 0-0.02 0.01-0.04 0.01-0.06h9.31C74.63 38.63 73.08 41.11 71.03 43.18zM76.74 29.29c0 1.21-0.11 2.43-0.34 3.63h-9.84c0.01-0.22 0.02-0.43 0.03-0.65 0.01-0.21 0.02-0.41 0.03-0.62 0.03-0.78 0.06-1.57 0.06-2.36s-0.02-1.58-0.06-2.36c-0.01-0.21-0.02-0.41-0.03-0.62-0.01-0.22-0.02-0.43-0.03-0.65h9.84C76.63 26.86 76.74 28.08 76.74 29.29zM66.28 22.67c0-0.02-0.01-0.04-0.01-0.06-0.07-0.59-0.16-1.17-0.25-1.74-0.02-0.15-0.05-0.3-0.08-0.44-0.07-0.43-0.15-0.86-0.24-1.28-0.03-0.17-0.07-0.33-0.1-0.5-0.1-0.46-0.2-0.9-0.31-1.34-0.02-0.09-0.04-0.18-0.06-0.27-0.13-0.52-0.28-1.02-0.43-1.5-0.01-0.04-0.02-0.08-0.03-0.12h6.26c2.05 2.07 3.6 4.54 4.57 7.26H66.28z" fill="#000000" data-fill-palette-color="accent"></path></svg></g></svg></g><g><rect width="174.84218195210318" height="2.5462419571501647" y="35.47422949610985" x="220.67781804789684" fill="#000000" data-fill-palette-color="accent"></rect><rect width="174.84218195210318" height="2.5462419571501647" y="35.47422949610985" x="0" fill="#000000" data-fill-palette-color="accent"></rect><rect width="174.84218195210318" height="2.5462419571501647" y="30.381745581809522" x="220.67781804789684" fill="#000000" data-fill-palette-color="accent"></rect><rect width="174.84218195210318" height="2.5462419571501647" y="30.381745581809522" x="0" fill="#000000" data-fill-palette-color="accent"></rect></g></svg></g><defs></defs></svg><rect width="395.52" height="73.92081028977219" fill="none" stroke="none" visibility="hidden"></rect></g></svg></g></svg>