<svg xmlns="http://www.w3.org/2000/svg" version="1.1" xmlns:xlink="http://www.w3.org/1999/xlink" xmlns:svgjs="http://svgjs.dev/svgjs" width="1000" height="449" viewBox="0 0 1000 449"><g transform="matrix(1,0,0,1,-0.6060606060606233,0.9440176963231295)"><svg viewBox="0 0 396 178" data-background-color="#ffffff" preserveAspectRatio="xMidYMid meet" height="449" width="1000" xmlns="http://www.w3.org/2000/svg" xmlns:xlink="http://www.w3.org/1999/xlink"><g id="tight-bounds" transform="matrix(1,0,0,1,0.2400000000000091,-0.004960266529508317)"><svg viewBox="0 0 395.52 178.0186866603624" height="178.0186866603624" width="395.52"><g><svg viewBox="0 0 395.52 178.0186866603624" height="178.0186866603624" width="395.52"><g transform="matrix(1,0,0,1,0,110.02269011161346)"><svg viewBox="0 0 395.52 67.99599654874892" height="67.99599654874892" width="395.52"><g id="textblocktransform"><svg viewBox="0 0 395.52 67.99599654874892" height="67.99599654874892" width="395.52" id="textblock"><g><svg viewBox="0 0 395.52 67.99599654874892" height="67.99599654874892" width="395.52"><g transform="matrix(1,0,0,1,0,0)"><svg width="395.52" viewBox="-7.550000190734863 -37.25 231.760009765625 39.849998474121094" height="67.99599654874892" data-palette-color="#233565"><path d="M21.55-30.95L21.8-30.75Q21.8-30.65 21.45-29.88 21.1-29.1 12.15-13.15L12.15-13.15Q19.55-16.2 25.35-21.53 31.15-26.85 31.15-30.8L31.15-30.8Q31.15-35.55 22.25-35.55L22.25-35.55Q17.05-35.55 10.5-33.15 3.95-30.75-0.75-27.05-5.45-23.35-5.45-20.05L-5.45-20.05Q-5.45-17.25-1.95-17.25L-1.95-17.25Q1-17.25 5.03-19.33 9.05-21.4 12.25-24.85L12.25-24.85Q12.65-25.5 12.98-25.5 13.3-25.5 13.3-25.15L13.3-25.15Q13.3-24 10.35-21.63 7.4-19.25 3.25-17.28-0.9-15.3-3.7-15.3L-3.7-15.3Q-7.55-15.3-7.55-19.25L-7.55-19.25Q-7.55-22.7-2.13-27 3.3-31.3 10.85-34.27 18.4-37.25 24.1-37.25L24.1-37.25Q33.6-37.25 33.6-32L33.6-32Q33.6-27.45 26.88-21.3 20.15-15.15 11.4-11.8L11.4-11.8Q6.4-2.85 4.75-0.05L4.75-0.05Q4.45 0.6 3.65 0.95 2.85 1.3 2.43 1.3 2 1.3 2 1.05L2 1.05 8.65-10.85Q5.5-9.9 2.8-9.6L2.8-9.6Q2.5-9.6 2.5-10.23 2.5-10.85 3.05-10.9L3.05-10.9Q6-11.05 9.4-12.15L9.4-12.15 19.4-30Q19.55-30.4 20.3-30.68 21.05-30.95 21.55-30.95L21.55-30.95ZM19.3-1.2L19.8-1.4Q22.2-2.4 24.95-4.1L24.95-4.1 25.9-4.7Q25.95-4.6 25.95-4.3 25.95-4 25.5-3.8L25.5-3.8Q22.85-2 20.2-0.65 17.55 0.7 15.3 0.7L15.3 0.7Q12.45 0.7 12.45-1.35L12.45-1.35Q12.45-3.8 15.87-6.88 19.3-9.95 22.65-9.95L22.65-9.95Q24.05-9.95 24.05-8.75L24.05-8.75Q24.05-8.05 22.8-7L22.8-7Q21.05-5.55 20.6-5.55 20.15-5.55 20.15-5.95L20.15-5.95Q20.15-6.1 20.35-6.25L20.35-6.25Q20.85-6.55 21.47-7.18 22.1-7.8 22.1-8.25L22.1-8.25Q22.1-8.95 21.45-8.95L21.45-8.95Q20.05-8.95 17.35-6.43 14.65-3.9 14.65-2.35L14.65-2.35Q14.65-0.6 16.55-0.6L16.55-0.6Q17.8-0.6 19.3-1.2L19.3-1.2ZM30.59-1.2L31.09-1.4Q33.5-2.4 36.25-4.1L36.25-4.1 37.2-4.7Q37.25-4.6 37.25-4.3 37.25-4 36.8-3.8L36.8-3.8Q34.15-2 31.5-0.65 28.84 0.7 26.59 0.7L26.59 0.7Q23.75 0.7 23.75-1.35L23.75-1.35Q23.75-3.8 27.17-6.88 30.59-9.95 33.95-9.95L33.95-9.95Q35.34-9.95 35.34-8.75L35.34-8.75Q35.34-8.05 34.09-7L34.09-7Q32.34-5.55 31.89-5.55 31.45-5.55 31.45-5.95L31.45-5.95Q31.45-6.1 31.64-6.25L31.64-6.25Q32.15-6.55 32.77-7.18 33.4-7.8 33.4-8.25L33.4-8.25Q33.4-8.95 32.75-8.95L32.75-8.95Q31.34-8.95 28.64-6.43 25.95-3.9 25.95-2.35L25.95-2.35Q25.95-0.6 27.84-0.6L27.84-0.6Q29.09-0.6 30.59-1.2L30.59-1.2ZM67.99-34.4L67.99-34.4Q83.99-34.4 84.69-34.5 85.39-34.6 85.87-34.6 86.34-34.6 86.34-34.4 86.34-34.2 85.82-33.77 85.29-33.35 84.02-32.93 82.74-32.5 81.14-32.5L81.14-32.5 66.39-32.55Q59.94-32.45 54.07-30.8 48.19-29.15 44.44-26.85 40.69-24.55 38.49-22.15 36.29-19.75 36.29-18.05L36.29-18.05Q36.29-16 39.34-16 42.39-16 47.27-18.63 52.14-21.25 55.54-24.9L55.54-24.9Q56.09-25.45 56.29-25.45L56.29-25.45Q56.39-25.45 56.39-25.3 56.39-25.15 56.34-25.05L56.34-25.05Q54.89-21.65 49.49-17.88 44.09-14.1 39.14-14.1 34.19-14.1 34.19-16.95L34.19-16.95Q34.19-19.1 36.99-22.05 39.79-25 44.24-27.78 48.69-30.55 55.12-32.48 61.54-34.4 67.99-34.4ZM65.49-30.95L65.74-30.75Q65.74-30.6 62.24-24.1L62.24-24.1Q52.69-6.35 49.14 0.4L49.14 0.4Q48.84 1.05 48.04 1.4 47.24 1.75 46.82 1.75 46.39 1.75 46.39 1.53 46.39 1.3 50.64-6.5 54.89-14.3 59.12-22.03 63.34-29.75 63.24-29.8L63.24-29.8Q63.54-30.3 64.24-30.55L64.24-30.55 65.49-30.95ZM68.74-3.5L68.74-3.5Q67.19-2.55 65.14-2.55L65.14-2.55 64.54-2.55Q63.19-1 61.66-0.03 60.14 0.95 59.04 0.95L59.04 0.95Q57.49 0.95 57.49-1.05 57.49-3.05 59.64-5.7L59.64-5.7Q59.44-6.25 59.44-7.05L59.44-7.05Q59.44-8.8 60.96-10.08 62.49-11.35 63.94-11.35L63.94-11.35Q66.99-11.35 66.99-8.05L66.99-8.05Q66.99-5.85 65.09-3.25L65.09-3.25 65.69-3.25Q67.29-3.25 68.44-4L68.44-4Q68.59-4.15 68.84-4.15 69.09-4.15 69.09-3.98 69.09-3.8 68.74-3.5ZM63.94-9.25L63.94-9.25Q64.19-9.35 64.34-9.35 64.49-9.35 64.49-9.13 64.49-8.9 63.94-8.5L63.94-8.5Q61.94-6.95 60.94-5.7L60.94-5.7Q62.04-3.95 64.29-3.4L64.29-3.4Q66.24-5.7 66.24-7.7L66.24-7.7Q66.24-8.85 65.49-9.45 64.74-10.05 63.56-10.05 62.39-10.05 61.39-9.38 60.39-8.7 60.39-7.93 60.39-7.15 60.54-6.7L60.54-6.7Q62.09-8.3 63.94-9.25ZM60.24-4.6L60.24-4.6Q59.44-3.25 59.44-1.6L59.44-1.6Q59.44-0.7 60.24-0.7L60.24-0.7Q61.59-0.7 63.59-2.7L63.59-2.7Q61.34-3.1 60.24-4.6ZM74.34-0.5L74.34-0.5Q74.34-1.05 75.16-2.35 75.99-3.65 76.26-4 76.54-4.35 77.09-5.1L77.09-5.1Q71.14 0.3 68.89 0.3L68.89 0.3Q67.64 0.3 67.64-0.75L67.64-0.75Q67.64-2.25 72.69-9.2L72.69-9.2Q72.94-9.6 73.34-9.6L73.34-9.6Q74.49-9.25 74.49-9.1 74.49-8.95 74.19-8.5L74.19-8.5Q69.89-2.7 69.89-1.98 69.89-1.25 70.39-1.25L70.39-1.25Q71.79-1.25 75.36-4.48 78.94-7.7 80.54-9.8L80.54-9.8Q80.74-10.15 81.19-10.15L81.19-10.15Q82.19-9.95 82.19-9.75L82.19-9.75Q81.64-8.95 80.69-7.65 79.74-6.35 79.14-5.53 78.54-4.7 77.89-3.75L77.89-3.75Q76.64-2.05 76.39-1.25L76.39-1.25Q76.39-0.75 77.21-0.75 78.04-0.75 80.14-1.73 82.24-2.7 83.84-3.7L83.84-3.7 85.44-4.7Q85.49-4.6 85.49-4.3 85.49-4 85.04-3.8L85.04-3.8Q78.29 0.8 75.64 0.8L75.64 0.8Q74.34 0.8 74.34-0.5ZM84.33-3.35L84.33-3.35Q84.13-3.25 83.96-3.25 83.78-3.25 83.78-3.45 83.78-3.65 83.93-3.8L83.93-3.8Q85.98-4.95 88.43-7.55L88.43-7.55Q86.18-8.25 86.18-9.53 86.18-10.8 87.88-12.38 89.58-13.95 91.08-13.95L91.08-13.95Q92.08-13.95 92.08-12.75L92.08-12.75Q92.08-10.9 90.23-8.8L90.23-8.8Q92.63-8.4 92.63-7.65L92.63-7.65Q92.63-6.65 91.76-6.13 90.88-5.6 89.73-4.25 88.58-2.9 88.58-1.55L88.58-1.55Q88.58-1.25 88.78-1 88.98-0.75 89.63-0.75 90.28-0.75 92.38-1.73 94.48-2.7 96.08-3.7L96.08-3.7 97.68-4.7Q97.73-4.6 97.73-4.3 97.73-4 97.28-3.8L97.28-3.8Q90.53 0.8 87.88 0.8L87.88 0.8Q86.58 0.8 86.58-0.5L86.58-0.5Q86.58-1.55 87.31-2.7 88.03-3.85 88.91-4.6 89.78-5.35 90.51-6.03 91.23-6.7 91.23-6.9 91.23-7.1 90.61-7.15 89.98-7.2 88.98-7.4L88.98-7.4Q86.23-4.45 84.33-3.35ZM87.43-10.3L87.43-10.3Q87.43-9.3 89.63-8.9L89.63-8.9Q90.93-10.5 90.93-11.68 90.93-12.85 90.18-12.85 89.43-12.85 88.43-11.98 87.43-11.1 87.43-10.3ZM130.93 0.6L130.93 0.6Q131.83 1.1 131.83 1.5L131.83 1.5Q131.83 2.2 131.18 2.3L131.18 2.3 130.93 2.3Q128.13 1.85 124.93-2L124.93-2Q118.58 2.6 112.13 2.6L112.13 2.6Q108.23 2.6 105.88 0.65 103.53-1.3 103.53-4.85L103.53-4.85Q103.53-9.35 107.08-13.25L107.08-13.25Q109.98-16.45 114.83-19.7L114.83-19.7Q115.88-20.4 117.73-21.6L117.73-21.6Q117.93-25.4 118.88-27.8L118.88-27.8 119.23-28.6Q120.08-30.4 121.25-31.63 122.43-32.85 123.58-33.3L123.58-33.3Q125.48-34.1 126.68-34.1L126.68-34.1Q128.03-34.1 128.58-32.85L128.58-32.85Q128.83-32.35 128.83-31.3 128.83-30.25 128.1-28.85 127.38-27.45 125.8-25.95 124.23-24.45 122.88-23.43 121.53-22.4 119.13-20.65L119.13-20.65Q119.23-17.45 120.38-14.15L120.38-14.15Q120.43-13.85 120.58-13.4L120.58-13.4Q124.63-15.75 127.83-15.75L127.83-15.75Q128.63-15.75 129.68-15.4L129.68-15.4Q131.73-14.7 131.73-12.35L131.73-12.35Q131.73-7.55 126.33-3.1L126.33-3.1Q128.53-0.55 130.93 0.6ZM121.48-7.2L121.08-7.95Q119.98-10.05 119.53-11.3L119.53-11.3Q116.83-9 116.28-6.35L116.28-6.35Q116.13-5.65 115.58-5.65L115.58-5.65Q114.88-5.65 114.88-6.8L114.88-6.8Q114.88-9.5 119.13-12.45L119.13-12.45Q117.88-16.15 117.73-19.7L117.73-19.7Q114.98-17.75 113.28-16.35 111.58-14.95 109.68-12.95L109.68-12.95Q105.83-9 105.83-4.4L105.83-4.4Q105.83 1.5 112.78 1.5L112.78 1.5Q114.83 1.5 118.2 0.35 121.58-0.8 124.38-2.7L124.38-2.7Q122.68-4.9 121.48-7.2L121.48-7.2ZM129.93-11.35L129.93-11.35Q129.93-11.8 129.83-12.33 129.73-12.85 128.9-13.6 128.08-14.35 126.58-14.35L126.58-14.35Q124.23-14.35 120.98-12.35L120.98-12.35Q122.78-7.65 125.83-3.75L125.83-3.75Q129.93-7.25 129.93-11.35ZM127.53-31.4L127.53-31.4Q127.53-32 127.2-32.4 126.88-32.8 126.18-33L126.18-33Q123.13-33 121.03-29.5L121.03-29.5Q119.43-26.8 119.18-22.5L119.18-22.5Q123.33-25.25 125.43-27.25 127.53-29.25 127.53-31.4ZM164.82-34.4L164.82-34.4Q180.82-34.4 181.52-34.5 182.22-34.6 182.7-34.6 183.17-34.6 183.17-34.4 183.17-34.2 182.65-33.77 182.12-33.35 180.85-32.93 179.57-32.5 177.97-32.5L177.97-32.5 163.22-32.55Q156.77-32.45 150.9-30.8 145.02-29.15 141.27-26.85 137.52-24.55 135.32-22.15 133.12-19.75 133.12-18.05L133.12-18.05Q133.12-16 136.17-16 139.22-16 144.1-18.63 148.97-21.25 152.37-24.9L152.37-24.9Q152.92-25.45 153.12-25.45L153.12-25.45Q153.22-25.45 153.22-25.3 153.22-25.15 153.17-25.05L153.17-25.05Q151.72-21.65 146.32-17.88 140.92-14.1 135.97-14.1 131.02-14.1 131.02-16.95L131.02-16.95Q131.02-19.1 133.82-22.05 136.62-25 141.07-27.78 145.52-30.55 151.95-32.48 158.37-34.4 164.82-34.4ZM162.32-30.95L162.57-30.75Q162.57-30.6 159.07-24.1L159.07-24.1Q149.52-6.35 145.97 0.4L145.97 0.4Q145.67 1.05 144.87 1.4 144.07 1.75 143.65 1.75 143.22 1.75 143.22 1.53 143.22 1.3 147.47-6.5 151.72-14.3 155.95-22.03 160.17-29.75 160.07-29.8L160.07-29.8Q160.37-30.3 161.07-30.55L161.07-30.55 162.32-30.95ZM154.92-3.35L154.92-3.35Q154.72-3.25 154.55-3.25 154.37-3.25 154.37-3.45 154.37-3.65 154.52-3.8L154.52-3.8Q156.57-4.95 159.02-7.55L159.02-7.55Q156.77-8.25 156.77-9.53 156.77-10.8 158.47-12.38 160.17-13.95 161.67-13.95L161.67-13.95Q162.67-13.95 162.67-12.75L162.67-12.75Q162.67-10.9 160.82-8.8L160.82-8.8Q163.22-8.4 163.22-7.65L163.22-7.65Q163.22-6.65 162.35-6.13 161.47-5.6 160.32-4.25 159.17-2.9 159.17-1.55L159.17-1.55Q159.17-1.25 159.37-1 159.57-0.75 160.22-0.75 160.87-0.75 162.97-1.73 165.07-2.7 166.67-3.7L166.67-3.7 168.27-4.7Q168.32-4.6 168.32-4.3 168.32-4 167.87-3.8L167.87-3.8Q161.12 0.8 158.47 0.8L158.47 0.8Q157.17 0.8 157.17-0.5L157.17-0.5Q157.17-1.55 157.9-2.7 158.62-3.85 159.5-4.6 160.37-5.35 161.1-6.03 161.82-6.7 161.82-6.9 161.82-7.1 161.2-7.15 160.57-7.2 159.57-7.4L159.57-7.4Q156.82-4.45 154.92-3.35ZM158.02-10.3L158.02-10.3Q158.02-9.3 160.22-8.9L160.22-8.9Q161.52-10.5 161.52-11.68 161.52-12.85 160.77-12.85 160.02-12.85 159.02-11.98 158.02-11.1 158.02-10.3ZM176.27-5.95L176.27-5.95Q175.97-5.95 175.97-6.3L175.97-6.3 176.12-6.65Q177.02-7.5 177.02-8.1L177.02-8.1Q177.02-8.85 176.22-8.85L176.22-8.85Q174.47-8.85 171.49-6.43 168.52-4 168.52-2.1L168.52-2.1Q168.52-1.3 169.57-1.3 170.62-1.3 171.99-2.18 173.37-3.05 174.34-3.93 175.32-4.8 175.42-4.8L175.42-4.8Q175.92-4.75 175.92-4.3L175.92-4.3Q175.92-4.1 175.14-3 174.37-1.9 174.37-1.25L174.37-1.25Q174.37-0.75 175.19-0.75 176.02-0.75 178.12-1.73 180.22-2.7 181.82-3.7L181.82-3.7 183.42-4.7Q183.47-4.6 183.47-4.3 183.47-4 183.02-3.8L183.02-3.8Q176.27 0.8 173.62 0.8L173.62 0.8Q172.32 0.8 172.32-0.5L172.32-0.5Q172.32-1.05 172.52-1.65L172.52-1.65Q172.17-1.25 170.44-0.43 168.72 0.4 167.37 0.4 166.02 0.4 166.02-0.85L166.02-0.85Q166.02-3.8 170.12-6.88 174.22-9.95 177.02-9.95L177.02-9.95Q178.67-9.95 178.67-8.55L178.67-8.55Q178.67-7.75 177.67-6.85 176.67-5.95 176.27-5.95ZM182.77-8.1L182.77-8.1 181.52-7.75Q181.42-7.75 181.42-7.9L181.42-7.9Q181.42-8.35 182.54-9 183.67-9.65 184.37-9.65 185.07-9.65 185.07-6.65L185.07-6.65 184.77-1.8Q184.82-1.85 188.12-5.48 191.42-9.1 193.84-11.05 196.27-13 197.97-13L197.97-13Q198.72-12.95 198.72-12.48 198.72-12 197.82-11.25 196.92-10.5 196.44-10.5 195.97-10.5 195.87-10.7 195.77-10.9 195.39-10.9 195.02-10.9 194.19-10.38 193.37-9.85 192.14-8.65 190.92-7.45 189.82-6.28 188.72-5.1 186.79-3.03 184.87-0.95 183.42 0.55L183.42 0.55Q183.02 0.9 182.74 0.9 182.47 0.9 182.47 0.7L182.47 0.7Q183.22-3.15 183.22-6.9L183.22-6.9 183.22-7.85Q183.07-8.1 182.77-8.1ZM196.86-4.85L196.86-4.85Q193.86-4.85 193.86-6.15L193.86-6.15Q193.86-7.7 197.41-9.83 200.96-11.95 203.81-11.95L203.81-11.95Q205.26-11.95 205.26-11.05L205.26-11.05Q205.26-10.55 204.51-9.95 203.76-9.35 203.06-9 202.36-8.65 202.26-8.65L202.26-8.65Q201.96-8.65 201.86-8.9L201.86-8.9Q201.76-9.25 202.39-9.63 203.01-10 203.01-10.45 203.01-10.9 201.89-10.9 200.76-10.9 198.36-9.33 195.96-7.75 195.96-6.75L195.96-6.75Q195.96-6 197.71-6L197.71-6Q198.01-6 198.81-6.05 199.61-6.1 199.61-5.85 199.61-5.6 197.14-4.05 194.66-2.5 194.66-1.4L194.66-1.4Q194.66-0.15 196.29-0.15 197.91-0.15 199.96-1L199.96-1Q203.26-2.45 205.96-4.1L205.96-4.1 206.91-4.7Q206.96-4.6 206.96-4.3 206.96-4 206.51-3.8L206.51-3.8Q203.86-2 200.71-0.38 197.56 1.25 195.04 1.25 192.51 1.25 192.51-0.43 192.51-2.1 196.86-4.85ZM206.81 0.8L206.81 0.8Q204.56 0.8 204.56-1.65L204.56-1.65Q204.56-4.9 208.09-10.98 211.61-17.05 216.14-21.88 220.66-26.7 223.26-26.7L223.26-26.7Q224.21-26.7 224.21-25.35L224.21-25.35Q224.21-23.25 220.69-18.5 217.16-13.75 213.11-9.6 209.06-5.45 206.86-3.9L206.86-3.9Q206.76-3.1 206.76-2.83 206.76-2.55 206.81-2.2 206.86-1.85 207.21-1.3 207.56-0.75 208.39-0.75 209.21-0.75 211.31-1.73 213.41-2.7 215.01-3.7L215.01-3.7 216.61-4.7Q216.66-4.6 216.66-4.3 216.66-4 216.21-3.8L216.21-3.8Q209.46 0.8 206.81 0.8ZM222.41-24.15L222.41-24.15Q222.36-25.25 221.76-25.25L221.76-25.25Q220.21-25.25 217.06-21.75 213.91-18.25 210.96-13.38 208.01-8.5 207.11-5L207.11-5Q209.21-6.7 212.51-10 215.81-13.3 219.01-17.55 222.21-21.8 222.41-24.15Z" opacity="1" transform="matrix(1,0,0,1,0,0)" fill="#233565" class="wordmark-text-0" data-fill-palette-color="primary" id="text-0"></path></svg></g></svg></g></svg></g></svg></g><g transform="matrix(1,0,0,1,133.50298113693026,0)"><svg viewBox="0 0 128.51403772613946 93.97046723037101" height="93.97046723037101" width="128.51403772613946"><g><svg xmlns="http://www.w3.org/2000/svg" data-name="Livello 1" viewBox="2.499997854232788 10.327999114990234 95.00007629394531 79.34300231933594" x="8" y="0" height="93.97046723037101" width="112.51403772613946" class="icon-icon-0" data-fill-palette-color="accent" id="icon-0"><path d="M96.253 73.488a1.248 1.248 0 0 1-1.118-0.691L65.99 14.368 51.217 43.844a1.248 1.248 0 1 1-2.232-1.118L64.877 11.017a1.248 1.248 0 0 1 1.116-0.689h0a1.248 1.248 0 0 1 1.116 0.691L97.369 71.682A1.249 1.249 0 0 1 96.253 73.488Z" fill="#8bd8bc" data-fill-palette-color="accent"></path><path d="M3.747 73.488A1.249 1.249 0 0 1 2.633 71.68l30.4-60.663a1.248 1.248 0 0 1 1.116-0.689h0a1.249 1.249 0 0 1 1.116 0.691L56.646 53.876a1.248 1.248 0 1 1-2.234 1.114L34.15 14.368 4.864 72.8A1.248 1.248 0 0 1 3.747 73.488Z" fill="#8bd8bc" data-fill-palette-color="accent"></path><path d="M66 55.816a0.666 0.666 0 0 1-0.656-0.783 15.78 15.78 0 0 0 0.246-2.78 0.666 0.666 0 0 1 1.331 0 17.12 17.12 0 0 1-0.267 3.015A0.666 0.666 0 0 1 66 55.816Z" fill="#8bd8bc" data-fill-palette-color="accent"></path><path d="M49.958 69.212a17.084 17.084 0 0 1-3.345-0.33 0.666 0.666 0 0 1 0.261-1.305 15.868 15.868 0 0 0 6.176 0 0.666 0.666 0 1 1 0.262 1.305A17.084 17.084 0 0 1 49.958 69.212ZM40.809 66.4a0.662 0.662 0 0 1-0.374-0.115 16.95 16.95 0 0 1-4.692-4.782 0.666 0.666 0 1 1 1.115-0.727 15.626 15.626 0 0 0 4.325 4.409A0.666 0.666 0 0 1 40.809 66.4Zm18.307 0a0.666 0.666 0 0 1-0.375-1.216 15.624 15.624 0 0 0 4.323-4.411 0.666 0.666 0 0 1 1.116 0.727 16.95 16.95 0 0 1-4.689 4.785A0.663 0.663 0 0 1 59.115 66.4Z" fill="#8bd8bc" data-fill-palette-color="accent"></path><path d="M33.921 55.816a0.666 0.666 0 0 1-0.654-0.548A17.12 17.12 0 0 1 33 52.252a0.666 0.666 0 0 1 1.331 0 15.78 15.78 0 0 0 0.246 2.78 0.666 0.666 0 0 1-0.538 0.773A0.683 0.683 0 0 1 33.921 55.816Z" fill="#8bd8bc" data-fill-palette-color="accent"></path><path d="M33.665 50.359a0.666 0.666 0 0 1-0.53-0.262c-0.266-0.349-6.508-8.592-6.508-12.293a7.038 7.038 0 0 1 14.076 0c0 3.7-6.243 11.944-6.508 12.293A0.666 0.666 0 0 1 33.665 50.359Zm0-18.262A5.713 5.713 0 0 0 27.958 37.8c0 2.46 3.729 8.069 5.707 10.775 1.978-2.707 5.707-8.317 5.707-10.775A5.713 5.713 0 0 0 33.665 32.1Z" fill="#8bd8bc" data-fill-palette-color="accent"></path><path d="M33.665 42.028a4.444 4.444 0 1 1 4.443-4.444A4.449 4.449 0 0 1 33.665 42.028Zm0-7.556a3.112 3.112 0 1 0 3.112 3.112A3.116 3.116 0 0 0 33.665 34.472Z" fill="#8bd8bc" data-fill-palette-color="accent"></path><path d="M73.3 48.219H59.2a0.666 0.666 0 0 1-0.666-0.666V40.207a0.666 0.666 0 0 1 0.666-0.666H73.3a0.666 0.666 0 0 1 0.666 0.666v7.346A0.666 0.666 0 0 1 73.3 48.219ZM59.866 46.888H72.638V40.873H59.866v6.015Z" fill="#8bd8bc" data-fill-palette-color="accent"></path><rect x="61.699" y="40.207" width="1.331" height="7.346" fill="#8bd8bc" data-fill-palette-color="accent"></rect><rect x="65.587" y="40.207" width="1.331" height="7.181" fill="#8bd8bc" data-fill-palette-color="accent"></rect><rect x="69.474" y="40.532" width="1.331" height="6.857" fill="#8bd8bc" data-fill-palette-color="accent"></rect><path d="M74.714 40.873H57.791A0.666 0.666 0 0 1 57.5 39.61l8.462-4.158a0.665 0.665 0 0 1 0.587 0l8.462 4.158A0.666 0.666 0 0 1 74.714 40.873ZM60.655 39.542h11.2l-5.6-2.75Z" fill="#8bd8bc" data-fill-palette-color="accent"></path><path d="M74.354 50.359H58.15a0.666 0.666 0 0 1-0.666-0.666v-2.14a0.666 0.666 0 0 1 0.666-0.666h16.2a0.666 0.666 0 0 1 0.666 0.666v2.14A0.666 0.666 0 0 1 74.354 50.359ZM58.816 49.027H73.688V48.219H58.816v0.808Z" fill="#8bd8bc" data-fill-palette-color="accent"></path><path d="M96.252 89.671H3.748A1.248 1.248 0 0 1 2.5 88.423V72.239a1.248 1.248 0 0 1 0.3-0.814c7.264-8.437 14.361-12.4 21.092-11.762 6.3 0.591 10.188 4.913 13.948 9.091 3.467 3.853 6.742 7.492 11.577 7.545h0.107c4.279 0 7.1-2.8 10.362-6.046C63.319 66.844 67.207 62.98 73.511 62c7.3-1.135 15.23 2 23.563 9.3a1.248 1.248 0 0 1 0.425 0.939V88.423A1.248 1.248 0 0 1 96.252 89.671ZM5 87.175H95V72.808c-7.592-6.531-14.691-9.336-21.11-8.34-5.5 0.854-8.931 4.261-12.246 7.556C58.3 75.353 54.834 78.8 49.526 78.8H49.392c-5.931-0.065-9.731-4.287-13.406-8.371-3.6-4-7-7.775-12.325-8.276C17.87 61.6 11.592 65.155 5 72.705v14.47Z" fill="#8bd8bc" data-fill-palette-color="accent"></path></svg></g></svg></g><g><rect width="133.50298113693026" height="6.131949140634616" y="86.8385180897364" x="262.0170188630697" fill="#8bd8bc" data-fill-palette-color="accent"></rect><rect width="133.50298113693026" height="6.131949140634616" y="86.8385180897364" x="0" fill="#8bd8bc" data-fill-palette-color="accent"></rect><rect width="133.50298113693026" height="6.131949140634616" y="74.57461980846716" x="262.0170188630697" fill="#8bd8bc" data-fill-palette-color="accent"></rect><rect width="133.50298113693026" height="6.131949140634616" y="74.57461980846716" x="0" fill="#8bd8bc" data-fill-palette-color="accent"></rect></g></svg></g><defs></defs></svg><rect width="395.52" height="178.0186866603624" fill="none" stroke="none" visibility="hidden"></rect></g></svg></g></svg>